<?xml version="1.0" standalone="no"?>
<!DOCTYPE svg PUBLIC "-//W3C//DTD SVG 20010904//EN"
 "http://www.w3.org/TR/2001/REC-SVG-20010904/DTD/svg10.dtd">
<svg version="1.0" xmlns="http://www.w3.org/2000/svg"
 width="512.000000pt" height="512.000000pt" viewBox="0 0 512.000000 512.000000"
 preserveAspectRatio="xMidYMid meet">
<metadata>
Created by potrace 1.14, written by Peter Selinger 2001-2017
</metadata>
<g transform="translate(0.000000,512.000000) scale(0.100000,-0.100000)"
fill="#000000" stroke="none">
<path d="M1325 4405 c-5 -2 -64 -15 -130 -30 -66 -15 -129 -35 -140 -45 -11
-10 -47 -32 -80 -49 -33 -18 -79 -45 -102 -62 -92 -65 -257 -273 -284 -358 -7
-20 -22 -57 -35 -82 -32 -65 -48 -198 -41 -354 5 -135 9 -150 70 -292 47 -111
79 -160 168 -262 102 -116 249 -215 384 -258 169 -54 163 -54 1060 -51 l830 3
113 33 c63 19 150 52 195 75 79 40 207 132 207 148 0 4 12 20 28 36 122 125
200 262 243 428 32 126 32 274 0 410 -51 216 -162 389 -334 522 -66 51 -222
131 -323 164 l-69 23 -875 3 c-481 1 -879 0 -885 -2z"/>
<path d="M4036 3854 c-21 -20 -20 -38 3 -99 37 -96 45 -180 38 -430 l-7 -235
-41 -82 c-23 -46 -45 -84 -50 -86 -5 -2 -9 -9 -9 -15 0 -7 -16 -34 -35 -61
-19 -27 -35 -54 -35 -60 1 -6 8 1 16 17 8 15 17 27 20 27 11 0 -28 -57 -55
-80 -17 -14 -72 -65 -123 -114 -86 -82 -137 -121 -242 -187 -34 -21 -148 -65
-190 -73 -6 -2 -36 -11 -66 -21 -52 -18 -114 -19 -1040 -25 l-985 -6 -78 -27
c-152 -53 -233 -103 -351 -216 -98 -94 -178 -201 -232 -309 -50 -98 -59 -133
-74 -272 -21 -192 6 -367 78 -510 93 -184 198 -297 390 -421 112 -73 33 -69
1271 -69 1213 1 1180 -1 1301 58 36 17 85 40 110 52 67 31 150 80 202 120 26
19 73 53 104 75 55 39 224 210 224 228 0 8 53 75 139 178 17 19 35 48 41 64 6
16 26 49 44 74 18 25 37 57 41 71 4 14 23 51 41 82 19 31 33 60 32 65 -1 4 4
24 11 43 8 19 13 38 12 43 0 4 2 7 7 7 14 0 41 64 57 134 8 37 26 96 40 130
51 129 70 438 47 776 -13 197 -18 231 -51 313 -11 29 -27 81 -36 117 -18 72
-96 239 -132 283 -13 16 -23 34 -23 41 0 16 -104 161 -142 198 -16 15 -28 33
-28 41 0 7 -14 26 -31 43 -17 16 -37 41 -45 56 -15 29 -99 78 -133 78 -11 0
-27 -7 -35 -16z"/>
</g>
</svg>
